<?xml version="1.0" encoding="UTF-8" standalone="no"?><!DOCTYPE svg PUBLIC "-//W3C//DTD SVG 1.1//EN" "http://www.w3.org/Graphics/SVG/1.1/DTD/svg11.dtd"><svg width="100%" height="100%" viewBox="0 0 490 150" version="1.1" xmlns="http://www.w3.org/2000/svg" xmlns:xlink="http://www.w3.org/1999/xlink" xml:space="preserve" xmlns:serif="http://www.serif.com/" style="fill-rule:evenodd;clip-rule:evenodd;stroke-linejoin:round;stroke-miterlimit:1.41421;"><g><path d="M229.017,122.674l7.676,0l0,-6.821l0.092,0l18.679,-0.078l0.02,-0.923l-5.375,-5.187l-21.092,-0.068l0,13.077Z" style="fill:#fff;fill-rule:nonzero;"/><path d="M243.75,119.977l-0.75,0l0,-7.812l-1.563,0l0,7.812l-0.687,0l0,2.134l3,0l0,-2.134Z" style="fill:#fff;fill-rule:nonzero;"/><path d="M231.862,122.674l20.776,0l0,-5.947l-20.776,-0.069l0,6.016Z" style="fill:#fff;fill-rule:nonzero;"/><path d="M241.513,113.848l-14.333,0l0,10.272l30.14,0l0,-11.405l-5.995,-4.816l-15.166,0l0,2.356l-2.716,0l0,2.71l8.07,0l0,0.883Z" style="fill:#fff;fill-rule:nonzero;"/><path d="M243.36,89.68c-1.226,-1.511 -1.415,-1.404 -2.22,-2.561l0,17.655l2.188,0l0.032,-15.094Z" style="fill:#fff;fill-rule:nonzero;"/><path d="M252.267,93.829l0.034,0l0,-0.063l5.166,0l0,-0.344l-18.31,-0.148l0,25.916l-0.828,0l0.097,-26.799l7.752,0c0.123,-5.568 -0.142,-11.574 0.105,-17.018l-2.167,-2.25l-2,0l0,-2.5l-10.916,0l0,2.5l-4.167,0l0,46.11l25.234,0l0,-25.404Z" style="fill:#fff;fill-rule:nonzero;"/><path d="M245.363,90.932l-3.282,0l0,-5.094l-1.472,0l0,5.094l-1.471,0l0,1.459l6.225,0l0,-1.459Z" style="fill:#fff;fill-rule:nonzero;"/><path d="M251.125,82.123l-8.711,0l0,-12.206l-1.184,0l0,12.206l-7.855,0l0,3.946l17.75,0l0,-3.946Z" style="fill:#fff;fill-rule:nonzero;"/><path d="M240.946,97.409l0.065,0l0,-0.166l12.582,0l0,-9.953l-3.875,0l0,-3.375l-13.061,0l0,3.187l-5.75,0l0,26.817l10.039,0l0,-16.51Z" style="fill:#fff;fill-rule:nonzero;"/><path d="M487.12,115.003l-33.131,0.123l0,16.393l-0.827,0l0.223,-17.276l26.677,0l0,-18.306l0.813,0l0,-0.937l-5.938,0l0,-1.5l-3.558,0l0,-7.969l-0.601,0l0,7.969l-2.153,0l0,1.5l-0.75,0l0,0.937l0.687,0l0,11.229l-0.79,0l-0.022,-3.916l-4.063,-3.125l-10.812,0l0,-1.039l-20.008,0l0,15.793l13.539,0l-0.199,28.869l-0.827,0l0,-27.987l-27.63,0.072l0,9.247l7.533,0l-0.039,22.162l-0.828,0l0,-21.279l-42.211,0l0,21.121l-0.828,0l0,-22.034l2.541,0.03l0,-11.306l5.964,0.151l0,-9.13l0.051,-4.237l-10.197,-6.353l-4.459,0l0,-3.075l-11.19,0l0,3.075l-2.182,0l0,1.998l-1.024,0l0,11.884l10.246,0l0,0.882l-42.92,0l0,34.246l-0.828,0l-0.104,-35.128l21.564,0l0,-6.966l-3.945,0l-0.103,-3.176l-1.409,0l0,-2.171l-4.935,0l0,-4.063l-4.643,0l0,-11.707l-0.677,0l0,11.707l-1.549,0l0,4.063l-1.548,0l0,2.171l-1.175,0l0,1.024l-2.099,0l0,1.845l-27.231,-0.095l0,-0.882l26.211,0l0,-36.312l0.264,-0.025l-0.264,-0.344l0,-0.392l-0.3,0l-4.686,-6.097l0,-2.751l-26.916,0l0,3.306l-7.25,4.861l0,18.167l-6.252,0l0,33.84l-0.828,0l0,-33.84l-0.587,0l0,-1.917l-1.75,0l0,-4.583l-20.333,0l0,2.666l-1.584,0l0,1.917l-1.25,0l0,35.18l10.004,-0.033l0.731,-0.001l0.097,33.361l-0.828,0l0,-32.353l-30.547,-0.018l0,34.496l-0.828,0l0,-35l0.022,0l0,-0.378l19.695,-0.068l0,-3.433l-31.139,-0.242l0,34.121l-0.828,0l0,-35l0.022,0l25.671,-0.003l0,-56.785l-0.08,0l0.101,-0.013l-5.999,-3.168l-3.621,-2.944l-14.714,0l0,3.17l-6.333,0.297l0.031,91.946l-0.828,0l0,-44.426l-6.738,0l0,-9.98l-3.309,-4.31l0,58.341l-0.828,0l0,-58.819l-5.537,0l0,-2.264l-16.977,0l0,2.264l-4.187,0l0,12.441l6.749,0l-0.095,47.753l-0.828,0l0,-46.871l-18.234,0.015l0,24.584l3.937,0.158l0,26.424l-0.828,0l0,-25.699l-32.692,0.174l0,3.5l-32.919,-0.233l0,21.821l-0.828,0l0,-22.625l0.012,0l2.315,-0.079l-0.069,-13.96l15.239,0l0.12,-1.627l-27.62,-0.217l0,21.74l-0.828,0l-0.069,-22.623l0.069,0l0,-0.002l19.226,0.002l0.09,-29.33l-6.631,-3.789l-24.192,0.262l0.085,51.228l8.065,0l0.013,20.137l-0.828,0l0,-19.094l-11.437,0.139l0,-2.466l-5.125,0l0,2.466l-4.96,0l0,20.239l-0.738,0l0.003,-20.695l-2.743,-0.107l0,-2.375l-1.625,0l0,2.375l-19.819,-0.139l0,21.582l-0.558,0l0,-22.625l19.377,0l0,-17.755l-5.742,0l-0.072,-2.813l-1.023,0l0,-0.161l-9.811,0l0,-0.38l9.811,0l0,-0.591l-10.186,0l0,1.132l-0.73,0l0.012,2.197c-4.962,0 -9.758,0 -14.657,0l0,33.269l-0.808,0l0,-19.146l-19.408,0.038l0,1.359l-1.247,0l0,3.883l16.757,0l-0.151,22.715l-0.558,0l0,-21.965l-18.124,0l0,23.463l484.5,0l-0.13,-34.997Zm-185.663,20.962l-0.828,0l0,-35l0.828,0l0,35Zm69.789,8.363l-0.827,0l0,-35l0.827,0l0,35Z" style="fill:#fff;fill-rule:nonzero;"/><path d="M243.077,112.589l0,-0.036l-1.654,0.006l0,0.03l1.654,0Z" style="fill:#fff;fill-rule:nonzero;"/><path d="M245.243,118.797l0,-14.023l11.996,0l0,-17.985l-29.977,0l0.005,32.008l17.976,0Z" style="fill:#fff;fill-rule:nonzero;"/><rect x="239.871" y="75.823" width="4.758" height="2.239" style="fill:#fff;fill-rule:nonzero;"/><rect x="235.871" y="68.573" width="12.758" height="1.364" style="fill:#fff;fill-rule:nonzero;"/><rect x="239.871" y="75.823" width="4.758" height="2.239" style="fill:#fff;fill-rule:nonzero;"/><rect x="239.871" y="75.883" width="4.758" height="2.239" style="fill:#fff;fill-rule:nonzero;"/><rect x="229.028" y="49.758" width="26.444" height="2.127" style="fill:#fff;fill-rule:nonzero;"/><rect x="239.527" y="98.544" width="5.446" height="2.513" style="fill:#fff;fill-rule:nonzero;"/><rect x="241.762" y="88.491" width="0.977" height="9.215" style="fill:#fff;fill-rule:nonzero;"/><rect x="237.974" y="68.944" width="8.553" height="3.072" style="fill:#fff;fill-rule:nonzero;"/><rect x="235.949" y="65.454" width="12.602" height="2.093" style="fill:#fff;fill-rule:nonzero;"/><rect x="241.813" y="48.419" width="0.874" height="14.941" style="fill:#fff;fill-rule:nonzero;"/><rect x="241.814" y="97.047" width="0.873" height="9.813" style="fill:#fff;fill-rule:nonzero;"/><rect x="241.813" y="67.38" width="0.875" height="21.74" style="fill:#fff;fill-rule:nonzero;"/></g></svg>